<svg width="187" height="24" viewBox="0 0 187 24" fill="none" xmlns="http://www.w3.org/2000/svg">
<path d="M65.4292 18.4056C65.4292 17.5043 65.6242 16.7026 66.0142 16.0006C66.4042 15.2899 66.9459 14.7396 67.6392 14.3496C68.3412 13.9509 69.1342 13.7516 70.0182 13.7516C71.1015 13.7516 72.0289 14.0376 72.8002 14.6096C73.5715 15.1816 74.0872 15.9616 74.3472 16.9496H71.9032C71.7212 16.5683 71.4612 16.2779 71.1232 16.0786C70.7939 15.8793 70.4169 15.7796 69.9922 15.7796C69.3075 15.7796 68.7529 16.0179 68.3282 16.4946C67.9035 16.9713 67.6912 17.6083 67.6912 18.4056C67.6912 19.2029 67.9035 19.8399 68.3282 20.3166C68.7529 20.7933 69.3075 21.0316 69.9922 21.0316C70.4169 21.0316 70.7939 20.9319 71.1232 20.7326C71.4612 20.5333 71.7212 20.2429 71.9032 19.8616H74.3472C74.0872 20.8496 73.5715 21.6296 72.8002 22.2016C72.0289 22.7649 71.1015 23.0466 70.0182 23.0466C69.1342 23.0466 68.3412 22.8516 67.6392 22.4616C66.9459 22.0629 66.4042 21.5126 66.0142 20.8106C65.6242 20.1086 65.4292 19.3069 65.4292 18.4056Z" fill="#070708"/>
<path d="M80.0245 23.0726C79.1665 23.0726 78.3779 22.8733 77.6585 22.4746C76.9479 22.0759 76.3802 21.5213 75.9555 20.8106C75.5395 20.0913 75.3315 19.2853 75.3315 18.3926C75.3315 17.4999 75.5395 16.6983 75.9555 15.9876C76.3802 15.2769 76.9479 14.7223 77.6585 14.3236C78.3779 13.9249 79.1665 13.7256 80.0245 13.7256C80.8825 13.7256 81.6669 13.9249 82.3775 14.3236C83.0969 14.7223 83.6602 15.2769 84.0675 15.9876C84.4835 16.6983 84.6915 17.4999 84.6915 18.3926C84.6915 19.2853 84.4835 20.0913 84.0675 20.8106C83.6515 21.5213 83.0882 22.0759 82.3775 22.4746C81.6669 22.8733 80.8825 23.0726 80.0245 23.0726ZM80.0245 21.0446C80.7525 21.0446 81.3332 20.8019 81.7665 20.3166C82.2085 19.8313 82.4295 19.1899 82.4295 18.3926C82.4295 17.5866 82.2085 16.9453 81.7665 16.4686C81.3332 15.9833 80.7525 15.7406 80.0245 15.7406C79.2879 15.7406 78.6985 15.9789 78.2565 16.4556C77.8232 16.9323 77.6065 17.5779 77.6065 18.3926C77.6065 19.1986 77.8232 19.8443 78.2565 20.3296C78.6985 20.8063 79.2879 21.0446 80.0245 21.0446Z" fill="#070708"/>
<path d="M96.2633 13.8556V22.9816H94.0403V17.5086L91.9993 22.9816H90.2053L88.1513 17.4956V22.9816H85.9283V13.8556H88.5543L91.1153 20.1736L93.6503 13.8556H96.2633Z" fill="#070708"/>
<path d="M108.197 13.8556V22.9816H105.974V17.5086L103.933 22.9816H102.139L100.085 17.4956V22.9816H97.8619V13.8556H100.488L103.049 20.1736L105.584 13.8556H108.197Z" fill="#070708"/>
<path d="M112.018 15.6366V17.4826H114.995V19.1986H112.018V21.2006H115.385V22.9816H109.795V13.8556H115.385V15.6366H112.018Z" fill="#070708"/>
<path d="M121.483 22.9816L119.585 19.5366H119.052V22.9816H116.829V13.8556H120.56C121.279 13.8556 121.89 13.9813 122.393 14.2326C122.904 14.4839 123.285 14.8306 123.537 15.2726C123.788 15.7059 123.914 16.1913 123.914 16.7286C123.914 17.3353 123.74 17.8769 123.394 18.3536C123.056 18.8303 122.553 19.1683 121.886 19.3676L123.992 22.9816H121.483ZM119.052 17.9636H120.43C120.837 17.9636 121.14 17.8639 121.34 17.6646C121.548 17.4653 121.652 17.1836 121.652 16.8196C121.652 16.4729 121.548 16.1999 121.34 16.0006C121.14 15.8013 120.837 15.7016 120.43 15.7016H119.052V17.9636Z" fill="#070708"/>
<path d="M124.932 18.4056C124.932 17.5043 125.127 16.7026 125.517 16.0006C125.907 15.2899 126.449 14.7396 127.142 14.3496C127.844 13.9509 128.637 13.7516 129.521 13.7516C130.604 13.7516 131.532 14.0376 132.303 14.6096C133.074 15.1816 133.59 15.9616 133.85 16.9496H131.406C131.224 16.5683 130.964 16.2779 130.626 16.0786C130.297 15.8793 129.92 15.7796 129.495 15.7796C128.81 15.7796 128.256 16.0179 127.831 16.4946C127.406 16.9713 127.194 17.6083 127.194 18.4056C127.194 19.2029 127.406 19.8399 127.831 20.3166C128.256 20.7933 128.81 21.0316 129.495 21.0316C129.92 21.0316 130.297 20.9319 130.626 20.7326C130.964 20.5333 131.224 20.2429 131.406 19.8616H133.85C133.59 20.8496 133.074 21.6296 132.303 22.2016C131.532 22.7649 130.604 23.0466 129.521 23.0466C128.637 23.0466 127.844 22.8516 127.142 22.4616C126.449 22.0629 125.907 21.5126 125.517 20.8106C125.127 20.1086 124.932 19.3069 124.932 18.4056Z" fill="#070708"/>
<path d="M137.434 13.8556V22.9816H135.211V13.8556H137.434Z" fill="#070708"/>
<path d="M144.726 21.3696H141.32L140.774 22.9816H138.447L141.749 13.8556H144.323L147.625 22.9816H145.272L144.726 21.3696ZM144.154 19.6536L143.023 16.3126L141.905 19.6536H144.154Z" fill="#070708"/>
<path d="M150.853 21.2656H153.765V22.9816H148.63V13.8556H150.853V21.2656Z" fill="#070708"/>
<path d="M159.765 13.8556V19.3156C159.765 19.8616 159.899 20.2819 160.168 20.5766C160.436 20.8713 160.831 21.0186 161.351 21.0186C161.871 21.0186 162.269 20.8713 162.547 20.5766C162.824 20.2819 162.963 19.8616 162.963 19.3156V13.8556H165.186V19.3026C165.186 20.1173 165.012 20.8063 164.666 21.3696C164.319 21.9329 163.851 22.3576 163.262 22.6436C162.681 22.9296 162.031 23.0726 161.312 23.0726C160.592 23.0726 159.947 22.9339 159.375 22.6566C158.811 22.3706 158.365 21.9459 158.036 21.3826C157.706 20.8106 157.542 20.1173 157.542 19.3026V13.8556H159.765Z" fill="#070708"/>
<path d="M170.049 23.0726C169.381 23.0726 168.783 22.9643 168.255 22.7476C167.726 22.5309 167.301 22.2103 166.981 21.7856C166.669 21.3609 166.504 20.8496 166.487 20.2516H168.853C168.887 20.5896 169.004 20.8496 169.204 21.0316C169.403 21.2049 169.663 21.2916 169.984 21.2916C170.313 21.2916 170.573 21.2179 170.764 21.0706C170.954 20.9146 171.05 20.7023 171.05 20.4336C171.05 20.2083 170.972 20.0219 170.816 19.8746C170.668 19.7273 170.482 19.6059 170.257 19.5106C170.04 19.4153 169.728 19.3069 169.321 19.1856C168.731 19.0036 168.25 18.8216 167.878 18.6396C167.505 18.4576 167.184 18.1889 166.916 17.8336C166.647 17.4783 166.513 17.0146 166.513 16.4426C166.513 15.5933 166.82 14.9303 167.436 14.4536C168.051 13.9683 168.853 13.7256 169.841 13.7256C170.846 13.7256 171.656 13.9683 172.272 14.4536C172.887 14.9303 173.216 15.5976 173.26 16.4556H170.855C170.837 16.1609 170.729 15.9313 170.53 15.7666C170.33 15.5933 170.075 15.5066 169.763 15.5066C169.494 15.5066 169.277 15.5803 169.113 15.7276C168.948 15.8663 168.866 16.0699 168.866 16.3386C168.866 16.6333 169.004 16.8629 169.282 17.0276C169.559 17.1923 169.992 17.3699 170.582 17.5606C171.171 17.7599 171.648 17.9506 172.012 18.1326C172.384 18.3146 172.705 18.5789 172.974 18.9256C173.242 19.2723 173.377 19.7186 173.377 20.2646C173.377 20.7846 173.242 21.2569 172.974 21.6816C172.714 22.1063 172.332 22.4443 171.83 22.6956C171.327 22.9469 170.733 23.0726 170.049 23.0726Z" fill="#070708"/>
<path d="M176.968 15.6366V17.4826H179.945V19.1986H176.968V21.2006H180.335V22.9816H174.745V13.8556H180.335V15.6366H176.968Z" fill="#070708"/>
<path d="M71.3312 5.45015C71.8599 5.56281 72.2845 5.82715 72.6052 6.24315C72.9259 6.65048 73.0862 7.11848 73.0862 7.64715C73.0862 8.40981 72.8175 9.01648 72.2802 9.46715C71.7515 9.90915 71.0105 10.1301 70.0572 10.1301H65.8062V1.00415H69.9142C70.8415 1.00415 71.5652 1.21648 72.0852 1.64114C72.6139 2.06581 72.8782 2.64215 72.8782 3.37015C72.8782 3.90748 72.7352 4.35381 72.4492 4.70915C72.1719 5.06448 71.7992 5.31148 71.3312 5.45015ZM68.0292 4.69615H69.4852C69.8492 4.69615 70.1265 4.61815 70.3172 4.46215C70.5165 4.29748 70.6162 4.05915 70.6162 3.74715C70.6162 3.43515 70.5165 3.19681 70.3172 3.03215C70.1265 2.86748 69.8492 2.78515 69.4852 2.78515H68.0292V4.69615ZM69.6672 8.33615C70.0399 8.33615 70.3259 8.25381 70.5252 8.08915C70.7332 7.91581 70.8372 7.66881 70.8372 7.34815C70.8372 7.02748 70.7289 6.77615 70.5122 6.59415C70.3042 6.41215 70.0139 6.32115 69.6412 6.32115H68.0292V8.33615H69.6672Z" fill="#070708"/>
<path d="M76.5595 1.00415V6.46415C76.5595 7.01015 76.6939 7.43048 76.9625 7.72515C77.2312 8.01981 77.6255 8.16715 78.1455 8.16715C78.6655 8.16715 79.0642 8.01981 79.3415 7.72515C79.6189 7.43048 79.7575 7.01015 79.7575 6.46415V1.00415H81.9805V6.45115C81.9805 7.26581 81.8072 7.95481 81.4605 8.51815C81.1139 9.08148 80.6459 9.50615 80.0565 9.79215C79.4759 10.0781 78.8259 10.2211 78.1065 10.2211C77.3872 10.2211 76.7415 10.0825 76.1695 9.80515C75.6062 9.51915 75.1599 9.09448 74.8305 8.53115C74.5012 7.95915 74.3365 7.26581 74.3365 6.45115V1.00415H76.5595Z" fill="#070708"/>
<path d="M91.3676 1.00415L88.2086 7.11415V10.1301H85.9855V7.11415L82.8266 1.00415H85.3486L87.1166 4.82615L88.8716 1.00415H91.3676Z" fill="#070708"/>
<path d="M100.699 8.51815H97.2931L96.7471 10.1301H94.4201L97.7221 1.00415H100.296L103.598 10.1301H101.245L100.699 8.51815ZM100.127 6.80215L98.9961 3.46115L97.8781 6.80215H100.127Z" fill="#070708"/>
<path d="M109.581 8.41415H112.493V10.1301H107.358V1.00415H109.581V8.41415Z" fill="#070708"/>
<path d="M115.776 1.00415V10.1301H113.553V1.00415H115.776Z" fill="#070708"/>
<path d="M117.01 5.55415C117.01 4.65281 117.205 3.85115 117.595 3.14915C117.985 2.43848 118.527 1.88815 119.22 1.49815C119.922 1.09948 120.715 0.900145 121.599 0.900145C122.683 0.900145 123.61 1.18615 124.381 1.75814C125.153 2.33015 125.668 3.11015 125.928 4.09815H123.484C123.302 3.71681 123.042 3.42648 122.704 3.22715C122.375 3.02781 121.998 2.92815 121.573 2.92815C120.889 2.92815 120.334 3.16648 119.909 3.64315C119.485 4.11981 119.272 4.75681 119.272 5.55415C119.272 6.35148 119.485 6.98848 119.909 7.46515C120.334 7.94181 120.889 8.18015 121.573 8.18015C121.998 8.18015 122.375 8.08048 122.704 7.88115C123.042 7.68181 123.302 7.39148 123.484 7.01015H125.928C125.668 7.99815 125.153 8.77815 124.381 9.35015C123.61 9.91348 122.683 10.1951 121.599 10.1951C120.715 10.1951 119.922 10.0001 119.22 9.61015C118.527 9.21148 117.985 8.66115 117.595 7.95915C117.205 7.25715 117.01 6.45548 117.01 5.55415Z" fill="#070708"/>
<path d="M129.513 2.78515V4.63115H132.49V6.34715H129.513V8.34915H132.88V10.1301H127.29V1.00415H132.88V2.78515H129.513Z" fill="#070708"/>
<path d="M142.487 10.1301H140.264L136.546 4.50115V10.1301H134.323V1.00415H136.546L140.264 6.65915V1.00415H142.487V10.1301Z" fill="#070708"/>
<path d="M147.4 10.2211C146.733 10.2211 146.135 10.1128 145.606 9.89615C145.078 9.67948 144.653 9.35881 144.332 8.93415C144.02 8.50948 143.856 7.99815 143.838 7.40015H146.204C146.239 7.73815 146.356 7.99815 146.555 8.18015C146.755 8.35348 147.015 8.44015 147.335 8.44015C147.665 8.44015 147.925 8.36648 148.115 8.21915C148.306 8.06315 148.401 7.85081 148.401 7.58215C148.401 7.35681 148.323 7.17048 148.167 7.02315C148.02 6.87581 147.834 6.75448 147.608 6.65915C147.392 6.56381 147.08 6.45548 146.672 6.33415C146.083 6.15215 145.602 5.97015 145.229 5.78815C144.857 5.60615 144.536 5.33748 144.267 4.98215C143.999 4.62681 143.864 4.16315 143.864 3.59115C143.864 2.74181 144.172 2.07881 144.787 1.60215C145.403 1.11681 146.204 0.874146 147.192 0.874146C148.198 0.874146 149.008 1.11681 149.623 1.60215C150.239 2.07881 150.568 2.74615 150.611 3.60415H148.206C148.189 3.30948 148.081 3.07981 147.881 2.91515C147.682 2.74181 147.426 2.65515 147.114 2.65515C146.846 2.65515 146.629 2.72881 146.464 2.87615C146.3 3.01481 146.217 3.21848 146.217 3.48715C146.217 3.78181 146.356 4.01148 146.633 4.17615C146.911 4.34081 147.344 4.51848 147.933 4.70915C148.523 4.90848 148.999 5.09914 149.363 5.28115C149.736 5.46315 150.057 5.72748 150.325 6.07415C150.594 6.42081 150.728 6.86715 150.728 7.41315C150.728 7.93315 150.594 8.40548 150.325 8.83015C150.065 9.25481 149.684 9.59281 149.181 9.84415C148.679 10.0955 148.085 10.2211 147.4 10.2211Z" fill="#070708"/>
<path d="M154.319 2.78515V4.63115H157.296V6.34715H154.319V8.34915H157.686V10.1301H152.096V1.00415H157.686V2.78515H154.319Z" fill="#070708"/>
<path d="M167.825 1.00415V2.78515H164.107V4.70915H166.889V6.43815H164.107V10.1301H161.884V1.00415H167.825Z" fill="#070708"/>
<path d="M173.31 10.2211C172.452 10.2211 171.663 10.0218 170.944 9.62315C170.233 9.22448 169.665 8.66981 169.241 7.95915C168.825 7.23981 168.617 6.43381 168.617 5.54115C168.617 4.64848 168.825 3.84681 169.241 3.13615C169.665 2.42548 170.233 1.87081 170.944 1.47215C171.663 1.07348 172.452 0.874146 173.31 0.874146C174.168 0.874146 174.952 1.07348 175.663 1.47215C176.382 1.87081 176.945 2.42548 177.353 3.13615C177.769 3.84681 177.977 4.64848 177.977 5.54115C177.977 6.43381 177.769 7.23981 177.353 7.95915C176.937 8.66981 176.373 9.22448 175.663 9.62315C174.952 10.0218 174.168 10.2211 173.31 10.2211ZM173.31 8.19315C174.038 8.19315 174.618 7.95048 175.052 7.46515C175.494 6.97981 175.715 6.33848 175.715 5.54115C175.715 4.73515 175.494 4.09381 175.052 3.61715C174.618 3.13181 174.038 2.88915 173.31 2.88915C172.573 2.88915 171.984 3.12748 171.542 3.60415C171.108 4.08081 170.892 4.72648 170.892 5.54115C170.892 6.34715 171.108 6.99281 171.542 7.47815C171.984 7.95481 172.573 8.19315 173.31 8.19315Z" fill="#070708"/>
<path d="M183.867 10.1301L181.969 6.68515H181.436V10.1301H179.213V1.00415H182.944C183.664 1.00415 184.275 1.12981 184.777 1.38115C185.289 1.63248 185.67 1.97914 185.921 2.42114C186.173 2.85448 186.298 3.33981 186.298 3.87715C186.298 4.48381 186.125 5.02548 185.778 5.50215C185.44 5.97881 184.938 6.31681 184.27 6.51615L186.376 10.1301H183.867ZM181.436 5.11215H182.814C183.222 5.11215 183.525 5.01248 183.724 4.81315C183.932 4.61381 184.036 4.33215 184.036 3.96815C184.036 3.62148 183.932 3.34848 183.724 3.14915C183.525 2.94981 183.222 2.85015 182.814 2.85015H181.436V5.11215Z" fill="#070708"/>
<path d="M51.1847 1.09668H46.6515C44.9018 1.09668 43.4828 2.51563 43.4828 4.26534V9.16963C43.4828 10.18 42.2631 10.6872 41.5466 9.97538L33.5415 2.01783C32.9477 1.42743 32.1447 1.09668 31.3081 1.09668H24.9104C23.1607 1.09668 21.7417 2.51563 21.7417 4.26534V9.14011C21.7417 10.1491 20.5241 10.657 19.8069 9.9472L11.797 2.0138C11.204 1.42609 10.4023 1.09668 9.56766 1.09668H3.16865C1.41895 1.09668 0 2.51563 0 4.26534V10.655C0 11.4956 0.334107 12.3014 0.92785 12.8958L9.94269 21.9107C10.5371 22.5051 11.3429 22.8386 12.1835 22.8386H18.5731C20.3228 22.8386 21.7417 21.4196 21.7417 19.6699V14.7649C21.7417 13.7552 22.9614 13.2474 23.678 13.9592L31.6865 21.9174C32.2802 22.5071 33.0833 22.8386 33.9199 22.8386H40.3148C42.0645 22.8386 43.4835 21.4196 43.4835 19.6699V13.1031C43.4835 12.4758 43.992 11.9673 44.6193 11.9673H51.1861C52.9358 11.9673 54.3547 10.5483 54.3547 8.79862V4.26534C54.3547 2.51563 52.9358 1.09668 51.1861 1.09668H51.1847Z" fill="#070708"/>
</svg>
