<svg width="55" height="22" viewBox="0 0 55 22" fill="none" xmlns="http://www.w3.org/2000/svg">
<g id="Workflow Builder Logo">
<path id="Vector" d="M51.1847 0.0967331H46.6515C44.9018 0.0967331 43.4828 1.51569 43.4828 3.2654V8.16968C43.4828 9.18006 42.2631 9.68726 41.5466 8.97543L33.5415 1.01788C32.9477 0.427487 32.1447 0.0967331 31.3081 0.0967331H24.9104C23.1607 0.0967331 21.7417 1.51569 21.7417 3.2654V8.14016C21.7417 9.1492 20.5241 9.65707 19.8069 8.94726L11.797 1.01385C11.204 0.426145 10.4023 0.0967331 9.56766 0.0967331H3.16865C1.41895 0.0967331 0 1.51569 0 3.2654V9.65506C0 10.4957 0.334107 11.3014 0.92785 11.8959L9.94269 20.9108C10.5371 21.5052 11.3429 21.8386 12.1835 21.8386H18.5731C20.3228 21.8386 21.7417 20.4197 21.7417 18.67V13.765C21.7417 12.7553 22.9614 12.2474 23.678 12.9592L31.6865 20.9175C32.2802 21.5072 33.0833 21.8386 33.9199 21.8386H40.3148C42.0645 21.8386 43.4835 20.4197 43.4835 18.67V12.1032C43.4835 11.4759 43.992 10.9673 44.6193 10.9673H51.1861C52.9358 10.9673 54.3547 9.54838 54.3547 7.79867V3.2654C54.3547 1.51569 52.9358 0.0967331 51.1861 0.0967331H51.1847Z" fill="currentColor"/>
</g>
</svg>
